<svg xmlns="http://www.w3.org/2000/svg" viewBox="0 0 48 48" fill="none" stroke="currentColor" stroke-width="3.5" stroke-linecap="round" stroke-linejoin="round">
  <!-- Top person head -->
  <circle cx="24" cy="8" r="4"/>
  <!-- Top person body arc -->
  <path d="M17 22a8 8 0 0 1 14 0"/>
  <!-- Bottom-left person head -->
  <circle cx="10" cy="34" r="4"/>
  <!-- Bottom-left person body arc -->
  <path d="M3 48a8 8 0 0 1 14 0"/>
  <!-- Bottom-right person head -->
  <circle cx="38" cy="34" r="4"/>
  <!-- Bottom-right person body arc -->
  <path d="M31 48a8 8 0 0 1 14 0"/>
  <!-- Connecting arcs between people -->
  <path d="M18 25 C14 28, 12 30, 14 34"/>
  <path d="M30 25 C34 28, 36 30, 34 34"/>
  <path d="M16 38 C20 42, 28 42, 32 38"/>
</svg>
